<svg xmlns="http://www.w3.org/2000/svg" width="20" height="20" viewBox="0 0 20 20">
  <title>
    Advanced-search
  </title>
  <path d="M6.19190193,12.2524632 C5.44118728,11.1924602 5,9.8977525 5,8.5 C5,4.91014913 7.91014913,2 11.5,2 C15.0898509,2 18,4.91014913 18,8.5 C18,12.0898509 15.0898509,15 11.5,15 C10.1022475,15 8.8075398,14.5588127 7.74753685,13.8080981 L3.5,18.0556349 L1.94436508,16.5 L6.19190193,12.2524632 L6.19190193,12.2524632 Z M11.5,13 C13.9852814,13 16,10.9852814 16,8.5 C16,6.01471863 13.9852814,4 11.5,4 C9.01471863,4 7,6.01471863 7,8.5 C7,10.9852814 9.01471863,13 11.5,13 Z M9,7 L14,7 L14,8 L9,8 L9,7 Z M9,9 L14,9 L14,10 L9,10 L9,9 Z"/>
</svg>
