<svg xmlns="http://www.w3.org/2000/svg" width="20" height="20" viewBox="0 0 20 20">
  <title>
    Audio-select
  </title>
  <path fill-rule="evenodd" d="M8,5 C8.55228475,5 9,5.44771525 9,6 L9,14 C9,14.5522847 8.55228475,15 8,15 C7.44771525,15 7,14.5522847 7,14 L7,6 C7,5.44771525 7.44771525,5 8,5 Z M12,3 C12.5522847,3 13,3.44771525 13,4 L13,16 C13,16.5522847 12.5522847,17 12,17 C11.4477153,17 11,16.5522847 11,16 L11,4 C11,3.44771525 11.4477153,3 12,3 Z M4,8 C4.55228475,8 5,8.44771525 5,9 L5,11 C5,11.5522847 4.55228475,12 4,12 C3.44771525,12 3,11.5522847 3,11 L3,9 C3,8.44771525 3.44771525,8 4,8 Z M16,6 C16.5522847,6 17,6.44771525 17,7 L17,13 C17,13.5522847 16.5522847,14 16,14 C15.4477153,14 15,13.5522847 15,13 L15,7 C15,6.44771525 15.4477153,6 16,6 Z"/>
</svg>
