<svg xmlns="http://www.w3.org/2000/svg" width="20" height="20" viewBox="0 0 20 20">
  <title>
    Comment
  </title>
  <path fill-rule="evenodd" d="M14.0983604,14 L13.9660509,17.0038462 L9.98047383,14 L4.49824524,14 C3.67078724,14 3,13.328344 3,12.502899 L3,5.49710104 C3,4.67027497 3.6752491,4 4.49824524,4 L15.5017548,4 C16.3292128,4 17,4.67165598 17,5.49710104 L17,12.502899 C17,13.329725 16.3247509,14 15.5017548,14 L14.0983604,14 Z M5,8 L5,10 L7,10 L7,8 L5,8 Z M9,8 L9,10 L11,10 L11,8 L9,8 Z M13,8 L13,10 L15,10 L15,8 L13,8 Z"/>
</svg>
