<svg xmlns="http://www.w3.org/2000/svg" width="20" height="20" viewBox="0 0 20 20">
  <title>
    Duration
  </title>
  <path d="M11,9.58578644 L13.1961945,11.7819809 C13.5867188,12.1725052 13.5867188,12.8056702 13.1961945,13.1961945 C12.8056702,13.5867188 12.1725052,13.5867188 11.7819809,13.1961945 L9.30710716,10.7213207 C9.30472671,10.7189403 9.30236077,10.7165508 9.30000934,10.7141524 C9.11486764,10.5326595 9,10.2797441 9,10 L9,7 C9,6.44771525 9.44771525,6 10,6 C10.5522847,6 11,6.44771525 11,7 L11,9.58578644 L11,9.58578644 Z M10,18 C5.581722,18 2,14.418278 2,10 C2,5.581722 5.581722,2 10,2 C14.418278,2 18,5.581722 18,10 C18,14.418278 14.418278,18 10,18 Z M10,16 C13.3137085,16 16,13.3137085 16,10 C16,6.6862915 13.3137085,4 10,4 C6.6862915,4 4,6.6862915 4,10 C4,13.3137085 6.6862915,16 10,16 Z"/>
</svg>
