<svg xmlns="http://www.w3.org/2000/svg" width="20" height="20" viewBox="0 0 20 20">
  <title>
    Empty-hidden
  </title>
  <g fill-rule="evenodd">
    <path d="M4.17068775,6.99911488 L6.13548648,8.96391361 C6.04711451,9.29436687 6,9.64168134 6,10 C6,12.209139 7.790861,14 10,14 C10.3583187,14 10.7056331,13.9528855 11.0360864,13.8645135 L12.6146151,15.4430423 C11.7689615,15.8143474 10.8974232,16 10,16 C7.05448133,16 4.38781467,14 2,10 C2.69962382,8.82800984 3.42318641,7.8277148 4.17068775,6.99911488 Z M7.38538487,4.55695775 C8.23103845,4.18565258 9.10257683,4 10,4 C12.9455187,4 15.6121853,6 18,10 C17.3003762,11.1719902 16.5768136,12.1722852 15.8293122,13.0008851 L13.8645135,11.0360864 C13.9528855,10.7056331 14,10.3583187 14,10 C14,7.790861 12.209139,6 10,6 C9.64168134,6 9.29436687,6.04711451 8.96391361,6.13548648 L7.38538487,4.55695775 Z"/>
    <path d="M8.06774324,9.4819568 C8.02355725,9.64718343 8,9.82084067 8,10 C8,11.1045695 8.8954305,12 10,12 C10.1791593,12 10.3528166,11.9764427 10.5180432,11.9322568 L16,17.4142136 L17.4142136,16 L11.9322568,10.5180432 C11.9764427,10.3528166 12,10.1791593 12,10 C12,8.8954305 11.1045695,8 10,8 C9.82084067,8 9.64718343,8.02355725 9.4819568,8.06774324 L4,2.58578644 L2.58578644,4 L8.06774324,9.4819568 Z"/>
  </g>
</svg>
