<svg xmlns="http://www.w3.org/2000/svg" width="20" height="20" viewBox="0 0 20 20">
  <title>
    Filters
  </title>
  <path fill-rule="evenodd" d="M5.17070571,5 C5.58254212,3.83480763 6.69378117,3 8,3 C9.30621883,3 10.4174579,3.83480763 10.8292943,5 L17,5 L17,7 L10.8292943,7 C10.4174579,8.16519237 9.30621883,9 8,9 C6.69378117,9 5.58254212,8.16519237 5.17070571,7 L3,7 L3,5 L5.17070571,5 L5.17070571,5 Z M9.17070571,13 C9.58254212,11.8348076 10.6937812,11 12,11 C13.3062188,11 14.4174579,11.8348076 14.8292943,13 L17,13 L17,15 L14.8292943,15 C14.4174579,16.1651924 13.3062188,17 12,17 C10.6937812,17 9.58254212,16.1651924 9.17070571,15 L3,15 L3,13 L9.17070571,13 L9.17070571,13 Z M8,7.25 C8.69035594,7.25 9.25,6.69035594 9.25,6 C9.25,5.30964406 8.69035594,4.75 8,4.75 C7.30964406,4.75 6.75,5.30964406 6.75,6 C6.75,6.69035594 7.30964406,7.25 8,7.25 Z M12,15.25 C12.6903559,15.25 13.25,14.6903559 13.25,14 C13.25,13.3096441 12.6903559,12.75 12,12.75 C11.3096441,12.75 10.75,13.3096441 10.75,14 C10.75,14.6903559 11.3096441,15.25 12,15.25 Z"/>
</svg>
