<svg xmlns="http://www.w3.org/2000/svg" width="20" height="20" viewBox="0 0 20 20">
  <title>
    Info
  </title>
  <path d="M10,19 C5.02943725,19 1,14.9705627 1,10 C1,5.02943725 5.02943725,1 10,1 C14.9705627,1 19,5.02943725 19,10 C19,14.9705627 14.9705627,19 10,19 Z M10,17 C13.8659932,17 17,13.8659932 17,10 C17,6.13400675 13.8659932,3 10,3 C6.13400675,3 3,6.13400675 3,10 C3,13.8659932 6.13400675,17 10,17 Z M11,9 L11,14 L9,14 L9,9 L11,9 Z M10,8 C9.44771525,8 9,7.55228475 9,7 C9,6.44771525 9.44771525,6 10,6 C10.5522847,6 11,6.44771525 11,7 C11,7.55228475 10.5522847,8 10,8 Z"/>
</svg>
