<svg xmlns="http://www.w3.org/2000/svg" width="20" height="20" viewBox="0 0 20 20">
  <title>
    PDF
  </title>
  <path fill-rule="evenodd" d="M19.0030894,12.371517 C18.973684,12.0666603 18.8728652,11.8260155 18.6700274,11.6309791 C18.2835555,11.2547091 17.4530008,11.0758758 16.2635794,11.0602729 C15.450428,11.0518713 14.4914495,11.1220844 13.4634581,11.2625105 C12.8591456,10.9168462 12.5008789,10.6804022 12.1936217,10.3965493 C11.2070381,9.48738007 10.3884857,8.2289458 9.8681888,6.83188571 C9.90059484,6.70526213 9.92699975,6.60024258 9.94920389,6.50122415 C10.0086149,6.23657488 10.0632251,5.7612864 10.1142346,5.12276753 C10.1406395,4.78670496 10.1652441,4.42783815 10.186248,4.06897134 C10.1988504,3.85353123 10.2084522,3.68610006 10.213253,3.58948208 C10.2144533,3.56187694 10.2072519,3.53907269 10.202451,3.51446811 C10.2246552,3.43105258 10.2546608,3.3092299 10.2858666,3.15800175 C10.3584801,2.79493416 10.3938867,2.47387439 10.3668816,2.22242758 C10.3026697,1.63731865 9.8729897,0.993998883 9.22666937,1.00360067 L8.94581709,1 C8.40091565,1 7.91422504,1.27725162 7.78520102,1.73273641 C7.46714181,2.8891517 7.69038337,4.49445055 8.42792067,7.28497006 L8.27609241,7.6504381 C8.00904269,8.29255764 7.69398404,8.96348254 7.28830851,9.76763225 C7.12147746,10.1000941 7.05426494,10.2297183 6.673194,10.9678557 C6.673194,10.9684558 6.67259389,10.9684558 6.67259389,10.9690559 C6.11088932,12.054658 5.58339111,13.0046349 5.09069939,13.8231873 C5.01028442,13.7739781 4.90826543,13.7601755 4.80204565,13.8147857 C4.77023973,13.8315888 4.77023973,13.8315888 4.64241593,13.8988013 C4.5229937,13.961213 4.40297136,14.0248248 4.29135058,14.084836 C4.05070578,14.2120597 3.88147427,14.3044769 3.80526008,14.3494852 C2.20116145,15.2958614 1.19657443,16.3424563 1.02374226,17.1772117 C0.952929072,17.5204756 1.0363446,17.8655398 1.33039934,18.0317708 L1.77268168,18.2520118 C3.10432959,18.9109344 4.56560163,17.5114739 6.60538138,14.0020206 C8.57554816,13.3701029 10.8799772,12.8240012 12.9107552,12.522145 C14.8131094,13.5729407 17.1283404,14.1784534 18.1353279,13.9126039 C18.3585694,13.8543931 18.592613,13.6923629 18.7264379,13.5141297 C18.769646,13.4487175 18.7930503,13.3929072 18.818255,13.322094 C18.8476605,13.2380783 18.8776661,13.134259 18.9064714,13.0172372 C18.9238747,12.9488245 18.9376772,12.8912138 18.9448786,12.8552071 C18.9514798,12.8270018 18.9496795,12.801197 18.9484793,12.7753922 C18.9796851,12.6487686 19.0096907,12.4753363 19.0030894,12.371517 L19.0030894,12.371517 Z M15.5182407,12.2472939 C16.5060246,12.1968845 17.2669662,12.2388923 17.7074482,12.3781182 C18.0507121,12.4867385 18.2523497,12.5953587 18.3417663,12.688376 C18.3411662,12.6907764 18.3423664,12.6925768 18.3423664,12.6949772 C18.3039593,12.7375852 18.2661522,12.7765924 18.2385471,12.7969962 C17.8874817,12.9626271 16.7826761,12.7375852 15.5182407,12.2472939 L15.5182407,12.2472939 Z M4.28474935,15.0900231 C3.53520981,16.1972292 2.89309027,16.9245646 2.37519385,17.2612273 C2.68845217,16.6785188 3.4271897,15.8065565 4.28474935,15.0900231 L4.28474935,15.0900231 Z M9.54472859,3.80252174 C9.46671406,4.10557816 9.42710669,4.25680631 9.37249652,4.46864575 C9.34189082,4.58686776 9.31428569,4.69428776 9.28848088,4.79330619 C9.1510553,4.10617827 9.07064033,3.45325672 9.07064033,2.91075572 C9.07064033,2.60529885 9.09944569,2.19842311 9.15345574,1.91096959 C9.1564563,1.8857649 9.1612572,1.86656133 9.16485787,1.84555742 C9.24527284,1.95837842 9.34429127,2.12580959 9.45171127,2.35805283 C9.57713462,2.63230388 9.60834043,2.90895539 9.60714021,3.40464767 L9.60714021,3.4574575 C9.60714021,3.47966163 9.61434155,3.49706487 9.61794222,3.51686856 C9.60654009,3.56247705 9.59993886,3.58768174 9.54472859,3.80252174 L9.54472859,3.80252174 Z M7.89622169,11.6003734 C7.89622169,11.5997733 7.8968218,11.5997733 7.8968218,11.5991732 C8.42191956,10.6185907 8.81259229,9.76883247 9.17746021,8.85546243 C9.75476769,9.85404834 10.4665002,10.7392131 11.3174586,11.4509456 C11.3798702,11.5031553 11.4554843,11.5523645 11.5208965,11.6039741 C9.95400478,11.9172324 8.54134179,12.2989035 7.24870114,12.7735919 C7.48994605,12.3457122 7.68978326,11.9838448 7.89622169,11.6003734 L7.89622169,11.6003734 Z"/>
</svg>
