<svg xmlns="http://www.w3.org/2000/svg" width="20" height="20" viewBox="0 0 20 20">
  <title>
    Search
  </title>
  <path fill-rule="evenodd" d="M8.54088921,13.3309815 L4.57521949,17.2966512 L3,15.7214317 L6.90535931,11.8160724 C6.24839732,10.9020234 5.86151615,9.78081314 5.86151615,8.56924193 C5.86151615,5.49343454 8.35495069,3 11.4307581,3 C14.5065655,3 17,5.49343454 17,8.56924193 C17,11.6450493 14.5065655,14.1384839 11.4307581,14.1384839 C10.3726061,14.1384839 9.38337943,13.8433794 8.54088921,13.3309815 L8.54088921,13.3309815 Z M11.4307581,12.336443 C13.5113258,12.336443 15.1979591,10.6498096 15.1979591,8.56924193 C15.1979591,6.48867423 13.5113258,4.80204087 11.4307581,4.80204087 C9.35019038,4.80204087 7.66355702,6.48867423 7.66355702,8.56924193 C7.66355702,10.6498096 9.35019038,12.336443 11.4307581,12.336443 Z"/>
</svg>
