<svg xmlns="http://www.w3.org/2000/svg" width="20" height="20" viewBox="0 0 20 20">
  <title>
    Settings
  </title>
  <path d="M8.4504278,4.20201289 L9,2 L11,2 L11.550598,4.20228645 C12.0654646,4.33963683 12.5530792,4.54374727 13.0036031,4.80477915 L14.9497475,3.63603897 L16.363961,5.05025253 L15.1957531,6.9973156 C15.4567035,7.44788297 15.6607275,7.93553308 15.7979871,8.4504278 L18,9 L18,11 L15.7977136,11.550598 C15.6604514,12.0651339 15.4565149,12.5524528 15.1957237,13.0027351 L16.363961,14.9497475 L14.9497475,16.363961 L13.0018129,15.1962577 C12.551771,15.4568028 12.064747,15.66056 11.5505414,15.7977286 L11,18 L9,18 L8.44842907,15.7974539 C7.93425178,15.6601943 7.44726337,15.4563505 6.99726494,15.1957237 L5.05025253,16.363961 L3.63603897,14.9497475 L4.80374229,13.0018129 C4.54319717,12.551771 4.33943998,12.064747 4.20227136,11.5505414 L2,11 L2,9 L4.20254608,8.44842907 C4.339894,7.93392113 4.54391169,7.44663705 4.80477915,6.99639685 L3.63603897,5.05025253 L5.05025253,3.63603897 L6.9973156,4.80424694 C7.44788297,4.54329652 7.93553308,4.33927246 8.4504278,4.20201289 Z M10,14 C12.209139,14 14,12.209139 14,10 C14,7.790861 12.209139,6 10,6 C7.790861,6 6,7.790861 6,10 C6,12.209139 7.790861,14 10,14 Z"/>
</svg>
