<svg xmlns="http://www.w3.org/2000/svg" width="20" height="20" viewBox="0 0 20 20">
  <title>
    StatusRed
  </title>
  <path fill-rule="evenodd" d="M11.2819329,4.10990267 L17.1172852,13.7215613 C17.5472047,14.4297002 17.3216634,15.3522789 16.6135245,15.7821984 C16.3788641,15.9246635 16.1096073,15.9999995 15.8350863,15.9999995 L4.16438166,15.9999995 C3.33595454,15.9999995 2.66438166,15.3284266 2.66438166,14.4999995 C2.66438166,14.2254785 2.73971768,13.9562217 2.88218278,13.7215613 L8.71753509,4.10990267 L8.71753509,4.10990267 C9.14745464,3.40176378 10.0700333,3.17622243 10.7781722,3.60614198 C10.9841113,3.73117005 11.1569048,3.90396357 11.2819329,4.10990267 Z M9,7 L9,11 L11,11 L11,7 L9,7 Z M9,12 L9,14 L11,14 L11,12 L9,12 Z"/>
</svg>
