<svg xmlns="http://www.w3.org/2000/svg" width="20" height="20" viewBox="0 0 20 20">
  <title>
    Subtitles
  </title>
  <path d="M14.801943,13 L16,13 L16,6 L4,6 L4,13 L9.6633731,13 C10.026009,13 10.3818215,13.0985961 10.6927385,13.2852385 L12.8465148,14.5781431 C13.0401769,13.6761587 13.8420973,13 14.801943,13 Z M16,15 L14.801943,15 L14.801943,18.0846659 L9.6633731,15 L4,15 C2.8954305,15 2,14.1045695 2,13 L2,6 C2,4.8954305 2.8954305,4 4,4 L16,4 C17.1045695,4 18,4.8954305 18,6 L18,13 C18,14.1045695 17.1045695,15 16,15 Z M6,8 L11,8 L11,10 L6,10 L6,8 Z M12,8 L14,8 L14,10 L12,10 L12,8 Z"/>
</svg>
