<svg xmlns="http://www.w3.org/2000/svg" width="20" height="20" viewBox="0 0 20 20">
  <title>
    Success
  </title>
  <path d="M10,19 C5.02943725,19 1,14.9705627 1,10 C1,5.02943725 5.02943725,1 10,1 C14.9705627,1 19,5.02943725 19,10 C19,14.9705627 14.9705627,19 10,19 Z M10,18 C14.418278,18 18,14.418278 18,10 C18,5.581722 14.418278,2 10,2 C5.581722,2 2,5.581722 2,10 C2,14.418278 5.581722,18 10,18 Z M12.6329893,6.00709903 L14.3720824,6.99480108 L9.83868645,14.9769627 L8.94533006,14.3831444 C8.8502702,14.3199576 8.8502702,14.3199576 8.46929877,14.0669287 C8.11206564,13.8297298 7.75453378,13.592537 7.42046723,13.3711973 C6.81407118,12.9694309 5.95737716,12.405336 5.98385129,12.4186596 L6.88294453,10.6321458 C6.97754438,10.6797548 7.26010484,10.8658083 8.51767631,11.6990095 C8.72945457,11.8393256 8.94249804,11.9805943 9.15886319,12.1241547 L12.6329893,6.00709903 Z"/>
</svg>
