<svg xmlns="http://www.w3.org/2000/svg" width="20" height="20" viewBox="0 0 20 20">
  <title>
    User
  </title>
  <g fill-rule="evenodd">
    <path d="M7.35406018,13 L6.9930915,13 C4.79056149,13 3.00524471,14.7899581 3.00000083,17 L16.9999786,17 C16.99475,14.782565 15.2089856,13 13.006887,13 L12.6412505,13 C11.9360419,13.6224289 11.0110614,14 10,14 C8.98549817,14 8.05920773,13.6229678 7.35406018,13 Z"/>
    <path fill-rule="nonzero" d="M7.8,6.9999433 L7.8,8.0000567 C7.8,9.2098863 8.78862231,10.2 10,10.2 C11.212402,10.2 12.2,9.21318205 12.2,8.0000567 L12.2,6.9999433 C12.2,5.7901137 11.2113777,4.8 10,4.8 C8.78759797,4.8 7.8,5.78681795 7.8,6.9999433 Z M6,6.9999433 C6,4.79083562 7.79535615,3 10,3 C12.209139,3 14,4.79965349 14,6.9999433 L14,8.0000567 C14,10.2091644 12.2046438,12 10,12 C7.790861,12 6,10.2003465 6,8.0000567 L6,6.9999433 Z"/>
  </g>
</svg>
