<svg xmlns="http://www.w3.org/2000/svg" width="20" height="20" viewBox="0 0 20 20">
  <title>
    Video-HD
  </title>
  <path fill-rule="evenodd" d="M15,8.51111524 L19,6 L19,15 L15,12.3682581 L15,14 C15,15.1045695 14.1045695,16 13,16 L3,16 C1.8954305,16 1,15.1045695 1,14 L1,7 C1,5.8954305 1.8954305,5 3,5 L13,5 C14.1045695,5 15,5.8954305 15,7 L15,8.51111524 Z M7.9725,7.73999977 L6.705,7.73999977 L6.705,9.69649977 L6.822,9.81349977 L4.1505,9.81349977 L4.2675,9.69649977 L4.2675,7.73999977 L3,7.73999977 L3,13.0049998 L4.2675,13.0049998 L4.2675,11.0484998 L4.1505,10.9314998 L6.822,10.9314998 L6.705,11.0484998 L6.705,13.0049998 L7.9725,13.0049998 L7.9725,7.73999977 Z M13.9845,10.3675 C13.9845,9.191 13.575,7.735 11.2415,7.735 L8.92750005,7.735 L8.92750005,13 L11.274,13 C13.5815,13 13.9845,11.544 13.9845,10.3675 Z M12.6975,10.3675 C12.6975,11.271 12.5025,11.8885 11.209,11.8885 L10.0845,11.8885 L10.195,11.7715 L10.195,8.9635 L10.0845,8.8465 L11.1765,8.8465 C12.496,8.8465 12.6975,9.477 12.6975,10.3675 Z"/>
</svg>
