<svg xmlns="http://www.w3.org/2000/svg" width="20" height="20" viewBox="0 0 20 20">
  <title>
    Video-SD
  </title>
  <path fill-rule="evenodd" d="M15,8.51111524 L19,6 L19,15 L15,12.3682581 L15,14 C15,15.1045695 14.1045695,16 13,16 L3,16 C1.8954305,16 1,15.1045695 1,14 L1,7 C1,5.8954305 1.8954305,5 3,5 L13,5 C14.1045695,5 15,5.8954305 15,7 L15,8.51111524 Z M7.5724999,11.4920001 C7.5724999,10.7640001 6.9809999,10.1595001 5.8629999,9.89950008 C5.7394999,9.87350008 5.1349999,9.72400008 5.0179999,9.69150008 C4.2314999,9.49650008 3.9844999,9.40550008 3.9844999,9.20400008 C3.9844999,8.97650008 4.3159999,8.76850008 5.0634999,8.77500008 C5.6419999,8.77500008 6.2854999,9.08700008 6.5974999,9.45100008 L7.4749999,8.58650008 C6.9159999,8.01450008 6.0904999,7.67000008 5.0829999,7.67000008 C3.5619999,7.67000008 2.6974999,8.35250008 2.6974999,9.23650008 C2.6974999,10.1660001 3.6009999,10.5170001 4.5369999,10.7445001 C4.6539999,10.7770001 5.3949999,10.9525001 5.5119999,10.9785001 C6.1879999,11.1410001 6.2854999,11.3880001 6.2854999,11.4920001 C6.2854999,11.7585001 6.0254999,11.9535001 5.2584999,11.9535001 C4.6539999,11.9535001 3.8934999,11.6870001 3.4644999,11.2710001 L2.5999999,12.1420001 C3.2499999,12.7400001 4.1534999,13.0650001 5.1479999,13.0650001 C6.8054999,13.0650001 7.5724999,12.3240001 7.5724999,11.4920001 Z M13.9870003,10.3675 C13.9870003,9.191 13.5775003,7.735 11.2440003,7.735 L8.93000031,7.735 L8.93000031,13 L11.2765003,13 C13.5840003,13 13.9870003,11.544 13.9870003,10.3675 Z M12.6929999,10.3675 C12.6929999,11.271 12.4979999,11.8885 11.2044999,11.8885 L10.0799999,11.8885 L10.1904999,11.7715 L10.1904999,8.9635 L10.0799999,8.8465 L11.1719999,8.8465 C12.4914999,8.8465 12.6929999,9.477 12.6929999,10.3675 Z"/>
</svg>
