<svg xmlns="http://www.w3.org/2000/svg" width="20" height="20" viewBox="0 0 20 20">
  <title>
    Volume-low
  </title>
  <g fill-rule="evenodd">
    <path d="M4.93667291,7 L2.5,7 L2.5,7 C2.22385763,7 2,7.22385763 2,7.5 L2,12.5 C2,12.7761424 2.22385763,13 2.5,13 L4.78587702,13 L9.19566417,16.382956 C9.28297849,16.4499389 9.38995226,16.4862449 9.5,16.4862449 C9.77614237,16.4862449 10,16.2623873 10,15.9862449 L10,4.03219637 C10,3.91971179 9.96207074,3.81051324 9.892342,3.72224838 C9.72116246,3.50556388 9.40673652,3.46867482 9.19005202,3.63985436 L9.19005202,3.63985436 L4.93667291,7 Z"/>
    <path fill-rule="nonzero" d="M1.06223526,0.930510495 C2.10491284,1.971341 2.75,3.41033641 2.75,5 C2.75,6.60372614 2.09344917,8.05410661 1.03447076,9.09701817 L0,8.22034938 L0,8.0103987 C0.77215622,7.24089309 1.25,6.17624974 1.25,5 C1.25,3.82375026 0.77215622,2.75910691 6.66133815e-16,1.9896013 L0,1.83852592 L1.06223526,0.930510495 Z" transform="translate(12 5)"/>
  </g>
</svg>
