<svg xmlns="http://www.w3.org/2000/svg" width="20" height="20" viewBox="0 0 20 20">
  <title>
    Volume-high
  </title>
  <g fill-rule="evenodd">
    <path d="M4.93667291,7 L2.5,7 L2.5,7 C2.22385763,7 2,7.22385763 2,7.5 L2,12.5 C2,12.7761424 2.22385763,13 2.5,13 L4.78587702,13 L9.19566417,16.382956 C9.28297849,16.4499389 9.38995226,16.4862449 9.5,16.4862449 C9.77614237,16.4862449 10,16.2623873 10,15.9862449 L10,4.03219637 C10,3.91971179 9.96207074,3.81051324 9.892342,3.72224838 C9.72116246,3.50556388 9.40673652,3.46867482 9.19005202,3.63985436 L9.19005202,3.63985436 L4.93667291,7 Z"/>
    <path fill-rule="nonzero" d="M4.10837983,0.326618175 C5.74654694,2.07088376 6.75,4.41825737 6.75,7 C6.75,9.58961121 5.74042101,11.9434226 4.09338384,13.6893134 L2.9471196,12.7179045 C4.37324254,11.2349753 5.25,9.21987651 5.25,7 C5.25,4.79030609 4.38126749,2.78351553 2.96670982,1.30253567 L4.10837983,0.326618175 Z M1.06223526,2.9305105 C2.10491284,3.971341 2.75,5.41033641 2.75,7 C2.75,8.60372614 2.09344917,10.0541066 1.03447076,11.0970182 L0,10.2203494 L0,10.0103987 C0.77215622,9.24089309 1.25,8.17624974 1.25,7 C1.25,5.82375026 0.77215622,4.75910691 3.33066907e-16,3.9896013 L0,3.83852592 L1.06223526,2.9305105 Z" transform="translate(12 3)"/>
  </g>
</svg>
