<svg xmlns="http://www.w3.org/2000/svg" width="20" height="20" viewBox="0 0 20 20">
  <title>
    Volume-mute
  </title>
  <g>
    <path d="M6.17646484 8.56936802C5.82340543 8.84828297 5.38661123 9 4.93667291 9L4 9 4 11 4.78587702 11C5.22606797 11 5.65396304 11.1452238 6.00322033 11.4131556L8 12.9449796 8 7.12878547 6.17646484 8.56936802zM4.93667291 7L9.19005202 3.63985436C9.40673652 3.46867482 9.72116246 3.50556388 9.892342 3.72224838 9.96207074 3.81051324 10 3.91971179 10 4.03219637L10 15.9862449C10 16.2623873 9.77614237 16.4862449 9.5 16.4862449 9.38995226 16.4862449 9.28297849 16.4499389 9.19566417 16.382956L4.78587702 13 2.5 13C2.22385763 13 2 12.7761424 2 12.5L2 7.5C2 7.22385763 2.22385763 7 2.5 7L4.93667291 7zM15 9.30842361L12.6871989 7 12 7.69725454 14.3071122 10 12 12.3027455 12.6871989 13 15 10.6915764 17.3128011 13 18 12.3027455 15.6928878 10 18 7.69725454 17.3128011 7 15 9.30842361z"/>
  </g>
</svg>
