<svg xmlns="http://www.w3.org/2000/svg" width="20" height="20" viewBox="0 0 20 20">
  <title>
    Word
  </title>
  <path fill-rule="evenodd" d="M2,3.16550899 L16,2 L16,18 L2,16.711174 L2,3.16550899 Z M14.3375883,5.16510943 L12.2524651,5.36493559 L11.4547267,11.5405735 C11.3923744,11.883042 11.3538633,12.221457 11.3171856,12.5552001 C11.2805078,12.124869 11.2383289,11.7967125 11.1906478,11.57057 L9.87084613,5.57509083 L7.63828565,5.78000713 L6.56376492,11.355752 C6.47207039,11.701694 6.41888836,12.0211684 6.37120737,12.3134096 C6.34920069,11.9186874 6.31435729,11.6041059 6.26667613,11.3697378 L5.44487314,5.98133022 L3.21326356,6.18615924 L5.28738345,14.0203536 L7.33949677,14.2087075 L8.68189797,8.78388308 C8.74425025,8.52864628 8.79193069,8.20276269 8.8469473,7.80528581 C8.86161842,8.16377723 8.90379727,8.48728891 8.97348512,8.77630571 L10.2828765,14.4788666 L12.2524651,14.6596459 L14.3375883,5.16510943 Z M18,4 L19,4 L19,16 L18,16 L18,4 Z"/>
</svg>
